<svg viewBox="0 0 30 30" fill="none" xmlns="http://www.w3.org/2000/svg" id="Github--Streamline-Unicons.svg" height="30" width="30"><desc>Github Streamline Icon: https://streamlinehq.com</desc><path d="M14.999875 0.66275c-3.4905000000000004 0.000125 -6.867125 1.242375 -9.525500000000001 3.50425C2.815875 6.428875 1.049 9.563 0.48987500000000006 13.008500000000002c-0.559125 3.445375 0.126 6.977375 1.93275 9.963999999999999 1.806625 2.986375 4.617125000000001 5.232625 7.9285000000000005 6.336625 0.735 0.12862500000000002 1.010625 -0.312375 1.010625 -0.69825 0 -0.349125 -0.018375 -1.50675 -0.018375 -2.7378750000000003 -3.6933749999999996 0.679875 -4.648875 -0.90025 -4.942875 -1.727125 -0.32625000000000004 -0.804125 -0.843375 -1.51675 -1.50675 -2.076375 -0.5145000000000001 -0.275625 -1.2495 -0.9555 -0.018375 -0.973875 0.470125 0.051000000000000004 0.920875 0.21462499999999998 1.314375 0.476875 0.393375 0.26225 0.717875 0.615625 0.9457500000000001 1.0298749999999999 0.201 0.361125 0.471375 0.679125 0.7955 0.935625 0.324125 0.2565 0.69575 0.446625 1.0935000000000001 0.559125 0.39775 0.112625 0.81375 0.14575 1.22425 0.09737499999999999s0.8075 -0.17725000000000002 1.168 -0.379375c0.063625 -0.747375 0.39675000000000005 -1.446125 0.93725 -1.966125 -3.27075 -0.3675 -6.6884999999999994 -1.635375 -6.6884999999999994 -7.258125 -0.020625 -1.4608750000000001 0.518375 -2.874375 1.50675 -3.9505 -0.44937499999999997 -1.2697500000000002 -0.396875 -2.6632499999999997 0.147 -3.8955 0 0 1.231 -0.38587499999999997 4.0425 1.50675 2.4052499999999997 -0.6615 4.9445 -0.6615 7.349875 0 2.811375 -1.911 4.0425 -1.50675 4.0425 -1.50675 0.543875 1.23225 0.5965 2.62575 0.147 3.8955 0.991125 1.0742500000000001 1.530875 2.489125 1.50675 3.9505 0 5.641125000000001 -3.4361249999999997 6.890625 -6.706875 7.258125 0.35075 0.3555 0.620875 0.7825 0.7921250000000001 1.2516250000000002 0.17125 0.469375 0.2395 0.97 0.200125 1.4678749999999998 0 1.96625 -0.018375 3.54625 -0.018375 4.042375 0 0.38587499999999997 0.275625 0.8452500000000001 1.010625 0.69825 3.3055000000000003 -1.112875 6.107875 -3.364375 7.906874999999999 -6.352375 1.799125 -2.9881249999999997 2.4776249999999997 -6.518375 1.914625 -9.9605 -0.5630000000000001 -3.442 -2.330875 -6.572 -4.98825 -8.831125C21.8615 1.905875 18.487750000000002 0.6646249999999999 14.999875 0.66275Z" fill="#000000" stroke-width="1"></path></svg>