<svg viewBox="0 0 30 30" fill="none" xmlns="http://www.w3.org/2000/svg" id="Linkedin--Streamline-Unicons.svg" height="30" width="30"><desc>Linkedin Streamline Icon: https://streamlinehq.com</desc><path d="M27.45075 0.30025H2.5492500000000002C2.2693749999999997 0.29625 1.991375 0.347625 1.73125 0.451125 1.47125 0.55475 1.234125 0.7084999999999999 1.033375 0.903625 0.83275 1.098875 0.6725000000000001 1.3316249999999998 0.561875 1.5887499999999999c-0.11075 0.257125 -0.16962499999999997 0.533625 -0.17350000000000002 0.8135000000000001v25.195500000000003c0.003875 0.279875 0.06275 0.556375 0.17350000000000002 0.8135000000000001s0.270875 0.48987500000000006 0.4715 0.685125c0.20074999999999998 0.19525 0.437875 0.349 0.697875 0.4525 0.260125 0.103625 0.538125 0.15487499999999998 0.818 0.150875h24.9015c0.279875 0.004 0.557875 -0.04725 0.817875 -0.150875 0.26025 -0.1035 0.49724999999999997 -0.25725000000000003 0.698 -0.4525 0.200625 -0.19525 0.360875 -0.42812500000000003 0.4715 -0.685125 0.11075 -0.257125 0.16962499999999997 -0.533625 0.17350000000000002 -0.8135000000000001V2.40225c-0.003875 -0.279875 -0.06275 -0.55625 -0.17350000000000002 -0.8135000000000001 -0.110625 -0.257125 -0.270875 -0.48987500000000006 -0.4715 -0.685125 -0.20074999999999998 -0.195125 -0.43775000000000003 -0.349 -0.698 -0.4525 -0.26 -0.1035 -0.538 -0.15487499999999998 -0.817875 -0.150875ZM9.252375 24.907625000000003h-4.41V11.677875h4.41v13.22975ZM7.047375000000001 9.825625c-0.608125 0 -1.1913749999999999 -0.24150000000000002 -1.6215 -0.671625 -0.42999999999999994 -0.42999999999999994 -0.671625 -1.01325 -0.671625 -1.6215 0 -0.608125 0.241625 -1.1915 0.671625 -1.6215 0.43012500000000004 -0.43012500000000004 1.013375 -0.671625 1.6215 -0.671625 0.323 -0.036625 0.65 -0.004625000000000001 0.9597500000000001 0.093875 0.30974999999999997 0.09849999999999999 0.595125 0.261375 0.8375 0.47787499999999994 0.2425 0.2165 0.436375 0.48175 0.56925 0.778375 0.13275 0.296625 0.2015 0.618 0.2015 0.943 0 0.325 -0.06875 0.646375 -0.2015 0.943 -0.13287500000000002 0.296625 -0.32675000000000004 0.561875 -0.56925 0.778375 -0.24237499999999998 0.2165 -0.52775 0.379375 -0.8375 0.47787499999999994 -0.30974999999999997 0.09862499999999999 -0.6367499999999999 0.130625 -0.9597500000000001 0.094ZM25.157500000000002 24.907625000000003h-4.4098749999999995v-7.1c0 -1.7786250000000001 -0.632125 -2.9398750000000002 -2.234375 -2.9398750000000002 -0.495875 0.0036249999999999998 -0.97875 0.159125 -1.3835 0.445625s-0.712 0.6901250000000001 -0.8802500000000001 1.156625c-0.115125 0.3455 -0.165 0.709375 -0.147 1.073v7.35H11.692499999999999V11.663125h4.41v1.866875c0.4005 -0.695125 0.98325 -1.267875 1.6851250000000002 -1.656375 0.702125 -0.3885 1.49675 -0.578125 2.2984999999999998 -0.548625 2.94 0 5.071375 1.8962499999999998 5.071375 5.968125v7.6145Z" fill="#000000" stroke-width="1"></path></svg>